<svg xmlns="http://www.w3.org/2000/svg" xmlns:svg="http://www.w3.org/2000/svg" id="svg1" width="512" height="512" aria-hidden="true" class="svg-inline--fa fa-github fa-2x" data-icon="github" data-prefix="fab" focusable="false" role="img" version="1.1" viewBox="0 0 512 512"><rect style="fill:#fff;stroke-width:1.00277" id="rect1" width="142" height="181" x="185" y="331" ry="7.039"/><ellipse style="fill:#fff;fill-opacity:1;stroke-width:1.15593" id="path2" cx="257" cy="278.5" rx="234" ry="229.5"/><path id="path1" fill="currentColor" d="m 174.89314,415.54728 c 0,2.02644 -2.27217,3.64759 -5.13709,3.64759 -3.26008,0.30396 -5.53226,-1.31718 -5.53226,-3.64759 0,-2.02644 2.27218,-3.64758 5.1371,-3.64758 2.9637,-0.30398 5.53225,1.31718 5.53225,3.64758 z m -30.72378,-4.55948 c -0.69153,2.02644 1.28427,4.35683 4.24798,4.96478 2.56855,1.01321 5.53225,0 6.125,-2.02645 0.59274,-2.02643 -1.28428,-4.35684 -4.24798,-5.26873 -2.56855,-0.70926 -5.43347,0.30397 -6.125,2.3304 z m 43.66531,-1.72247 c -2.8649,0.70926 -4.84072,2.63437 -4.54434,4.96477 0.29636,2.02643 2.8649,3.34362 5.82862,2.63437 2.86492,-0.70926 4.84072,-2.63437 4.54436,-4.6608 -0.29637,-1.92513 -2.96372,-3.2423 -5.82864,-2.93834 z M 252.83871,21 C 115.81653,21 11,127.69192 11,268.22532 c 0,112.36593 68.955645,208.52036 167.44959,242.36186 12.64518,2.3304 17.09074,-5.67402 17.09074,-12.25994 0,-6.28196 -0.29638,-40.93404 -0.29638,-62.21162 0,0 -69.15323,15.19827 -83.6754,-30.19391 0,0 -11.2621,-29.48466 -27.463711,-37.0838 0,0 -22.622984,-15.90753 1.580645,-15.60357 0,0 24.598796,2.02644 38.133066,26.14104 21.63508,39.11023 57.89112,27.86351 72.01814,21.17627 2.27218,-16.21149 8.69354,-27.45822 15.80645,-34.14546 -55.22378,-6.28196 -110.94153,-14.48903 -110.94153,-111.96065 0,-27.8635 7.50806,-41.84592 23.31452,-59.67856 -2.56855,-6.58593 -10.96572,-33.74019 2.56854,-68.79754 20.64719,-6.58592 68.16533,27.35689 68.16533,27.35689 19.75806,-5.67402 40.99799,-8.61235 62.04033,-8.61235 21.04233,0 42.28225,2.93833 62.04031,8.61235 0,0 47.51815,-34.04414 68.16533,-27.35689 13.53426,35.15868 5.13709,62.21161 2.56854,68.79754 15.80646,17.93396 25.48791,31.91637 25.48791,59.67856 0,97.77559 -58.1875,105.57737 -113.41129,111.96065 9.08871,8.00442 16.79436,23.2027 16.79436,47.01333 0,34.14547 -0.29638,76.39668 -0.29638,84.70507 0,6.58592 4.54436,14.59035 17.09073,12.25995 C 434.02016,476.74568 501,380.59125 501,268.22532 501,127.69192 389.86089,21 252.83871,21 Z M 107.02419,370.45906 c -1.28427,1.01322 -0.9879,3.34362 0.69153,5.26873 1.58065,1.62116 3.85283,2.3304 5.13711,1.01322 1.28426,-1.01322 0.98789,-3.34362 -0.69154,-5.26873 -1.58065,-1.62116 -3.85283,-2.3304 -5.1371,-1.01322 z m -10.669351,-8.20707 c -0.691533,1.31719 0.29637,2.93833 2.272177,3.95155 1.580644,1.01323 3.556454,0.70926 4.247984,-0.70925 0.69154,-1.31718 -0.29637,-2.93834 -2.27217,-3.95156 -1.975814,-0.60792 -3.556459,-0.30395 -4.247991,0.70926 z m 32.008071,36.07057 c -1.58064,1.31719 -0.98791,4.35685 1.28426,6.28197 2.27219,2.3304 5.13711,2.63436 6.42138,1.01321 1.28428,-1.31719 0.69153,-4.35684 -1.28427,-6.28195 -2.17339,-2.33041 -5.13711,-2.63437 -6.42137,-1.01323 z m -11.2621,-14.8943 c -1.58065,1.01322 -1.58065,3.64758 0,5.97799 1.58064,2.3304 4.24798,3.34362 5.53225,2.3304 1.58065,-1.31718 1.58065,-3.95156 0,-6.28196 -1.38306,-2.3304 -3.95161,-3.34362 -5.53225,-2.02643 z" style="fill:#000;fill-opacity:1;stroke-width:1.00048"/></svg>