<svg xmlns="http://www.w3.org/2000/svg" xmlns:svg="http://www.w3.org/2000/svg" id="svg1" width="246016" height="254686.09" aria-hidden="true" class="svg-inline--fa fa-github fa-2x" data-icon="github" data-prefix="fab" focusable="false" role="img" version="1.1" viewBox="0 0 246016 254686.09"><ellipse style="fill:#000;fill-opacity:1;stroke-width:1.10429" id="path2" cx="249.387" cy="-3809.006" rx="224.371" ry="218.44"/><path id="path1" fill="currentColor" d="m 165.9,-3698.6 c 0,2 -2.3,3.6 -5.2,3.6 -3.3,0.3 -5.6,-1.3 -5.6,-3.6 0,-2 2.3,-3.6 5.2,-3.6 3,-0.3 5.6,1.3 5.6,3.6 z m -31.1,-4.5 c -0.7,2 1.3,4.3 4.3,4.9 2.6,1 5.6,0 6.2,-2 0.6,-2 -1.3,-4.3 -4.3,-5.2 -2.6,-0.7 -5.5,0.3 -6.2,2.3 z m 44.2,-1.7 c -2.9,0.7 -4.9,2.6 -4.6,4.9 0.3,2 2.9,3.3 5.9,2.6 2.9,-0.7 4.9,-2.6 4.6,-4.6 -0.3,-1.9 -3,-3.2 -5.9,-2.9 z M 244.8,-4088 C 106.1,-4088 0,-3982.7 0,-3844 c 0,110.9 69.8,205.8 169.5,239.2 12.8,2.3 17.3,-5.6 17.3,-12.1 0,-6.2 -0.3,-40.4 -0.3,-61.4 0,0 -70,15 -84.7,-29.8 0,0 -11.4,-29.1 -27.8,-36.6 0,0 -22.9,-15.7 1.6,-15.4 0,0 24.9,2 38.6,25.8 21.9,38.6 58.6,27.5 72.9,20.9 2.3,-16 8.8,-27.1 16,-33.7 -55.9,-6.2 -112.3,-14.3 -112.3,-110.5 0,-27.5 7.6,-41.3 23.6,-58.9 -2.6,-6.5 -11.1,-33.3 2.6,-67.9 20.9,-6.5 69,27 69,27 20,-5.6 41.5,-8.5 62.8,-8.5 21.3,0 42.8,2.9 62.8,8.5 0,0 48.1,-33.6 69,-27 13.7,34.7 5.2,61.4 2.6,67.9 16,17.7 25.8,31.5 25.8,58.9 0,96.5 -58.9,104.2 -114.8,110.5 9.2,7.9 17,22.9 17,46.4 0,33.7 -0.3,75.4 -0.3,83.6 0,6.5 4.6,14.4 17.3,12.1 100,-33.2 167.8,-128.1 167.8,-239 0,-138.7 -112.5,-244 -251.2,-244 z m -147.6,344.9 c -1.3,1 -1,3.3 0.7,5.2 1.6,1.6 3.9,2.3 5.2,1 1.3,-1 1,-3.3 -0.7,-5.2 -1.6,-1.6 -3.9,-2.3 -5.2,-1 z m -10.8,-8.1 c -0.7,1.3 0.3,2.9 2.3,3.9 1.6,1 3.6,0.7 4.3,-0.7 0.7,-1.3 -0.3,-2.9 -2.3,-3.9 -2,-0.6 -3.6,-0.3 -4.3,0.7 z m 32.4,35.6 c -1.6,1.3 -1,4.3 1.3,6.2 2.3,2.3 5.2,2.6 6.5,1 1.3,-1.3 0.7,-4.3 -1.3,-6.2 -2.2,-2.3 -5.2,-2.6 -6.5,-1 z m -11.4,-14.7 c -1.6,1 -1.6,3.6 0,5.9 1.6,2.3 4.3,3.3 5.6,2.3 1.6,-1.3 1.6,-3.9 0,-6.2 -1.4,-2.3 -4,-3.3 -5.6,-2 z" style="fill:#fff;fill-opacity:1"/></svg>