<svg xmlns="http://www.w3.org/2000/svg" xmlns:svg="http://www.w3.org/2000/svg" id="svg2" width="512" height="512" fill="none" version="1.1" viewBox="0 0 512 512"><rect style="fill:#fff;stroke-width:10.2084" id="rect2" width="324.778" height="245.316" x="93.611" y="144.342"/><path id="path1" fill="#000" fill-rule="evenodd" d="M 11,267 C 11,131.69059 120.69059,22 256,22 391.30941,22 501,131.69059 501,267 501,402.30941 391.30941,512 256,512 120.69059,512 11,402.30941 11,267 Z M 411.20505,186.49729 C 408.19972,174.95166 399.34399,165.86014 388.0995,162.77414 367.72163,157.1667 256,157.1667 256,157.1667 c 0,0 -111.72212,0 -132.10102,5.60744 -11.24549,3.086 -20.10122,12.17752 -23.10656,23.72315 -5.459405,20.92504 -5.459405,84.58605 -5.459405,84.58605 0,0 0,63.65929 5.459405,84.58637 3.00534,11.54563 11.86107,20.63718 23.10656,23.72417 20.3789,5.60641 132.10102,5.60641 132.10102,5.60641 0,0 111.72163,0 132.0995,-5.60641 11.24449,-3.08699 20.10022,-12.17854 23.10555,-23.72417 5.46145,-20.92708 5.46145,-84.58637 5.46145,-84.58637 0,0 0,-63.661 -5.46145,-84.58605 z" clip-rule="evenodd" style="stroke-width:10.2084"/><path id="path2" fill="#000" fill-rule="evenodd" d="m 223.33334,307.83334 v -81.66668 l 65.33332,40.83436 z" clip-rule="evenodd" style="stroke-width:10.2084"/></svg>