<?xml version="1.0" encoding="UTF-8" standalone="no"?>
<svg
   width="48"
   height="48"
   viewBox="0 0 48 48"
   fill="none"
   version="1.1"
   id="svg2"
   sodipodi:docname="Youtube.svg"
   inkscape:export-filename="Youtube.png"
   inkscape:export-xdpi="96"
   inkscape:export-ydpi="96"
   xmlns:inkscape="http://www.inkscape.org/namespaces/inkscape"
   xmlns:sodipodi="http://sodipodi.sourceforge.net/DTD/sodipodi-0.dtd"
   xmlns="http://www.w3.org/2000/svg"
   xmlns:svg="http://www.w3.org/2000/svg">
  <defs
     id="defs2" />
  <sodipodi:namedview
     id="namedview2"
     pagecolor="#ffffff"
     bordercolor="#999999"
     borderopacity="1"
     inkscape:showpageshadow="2"
     inkscape:pageopacity="0"
     inkscape:pagecheckerboard="0"
     inkscape:deskcolor="#d1d1d1" />
  <rect
     style="fill:#ffffff"
     id="rect2"
     width="31.814672"
     height="24.030888"
     x="8.3397684"
     y="13.65251" />
  <path
     fill-rule="evenodd"
     clip-rule="evenodd"
     d="M 0,24 C 0,10.7452 10.7452,0 24,0 37.2548,0 48,10.7452 48,24 48,37.2548 37.2548,48 24,48 10.7452,48 0,37.2548 0,24 Z M 36.265,18.0732 C 35.9706,16.9422 35.1031,16.0516 34.0016,15.7493 32.0054,15.2 24,15.2 24,15.2 c 0,0 -8.0054,0 -10.0017,0.5493 -1.1016,0.3023 -1.9691,1.1929 -2.2635,2.3239 C 11.2,20.123 11.2,24.4 11.2,24.4 c 0,0 0,4.2768 0.5348,6.3268 0.2944,1.131 1.1619,2.0216 2.2635,2.324 C 15.9946,33.6 24,33.6 24,33.6 c 0,0 8.0054,0 10.0016,-0.5492 1.1015,-0.3024 1.969,-1.193 2.2634,-2.324 C 36.8,28.6768 36.8,24.4 36.8,24.4 c 0,0 0,-4.277 -0.535,-6.3268 z"
     fill="#000000"
     id="path1" />
  <path
     fill-rule="evenodd"
     clip-rule="evenodd"
     d="m 21.6,28.8 v -8 l 6.4,4.0001 z"
     fill="#000000"
     id="path2" />
</svg>
