<svg xmlns="http://www.w3.org/2000/svg" xmlns:svg="http://www.w3.org/2000/svg" id="svg2" width="48" height="48" fill="none" version="1.1" viewBox="0 0 48 48"><rect style="fill:#fff" id="rect2" width="31.815" height="24.031" x="8.34" y="13.653"/><path id="path1" fill="#000" fill-rule="evenodd" d="M 0,24 C 0,10.7452 10.7452,0 24,0 37.2548,0 48,10.7452 48,24 48,37.2548 37.2548,48 24,48 10.7452,48 0,37.2548 0,24 Z M 36.265,18.0732 C 35.9706,16.9422 35.1031,16.0516 34.0016,15.7493 32.0054,15.2 24,15.2 24,15.2 c 0,0 -8.0054,0 -10.0017,0.5493 -1.1016,0.3023 -1.9691,1.1929 -2.2635,2.3239 C 11.2,20.123 11.2,24.4 11.2,24.4 c 0,0 0,4.2768 0.5348,6.3268 0.2944,1.131 1.1619,2.0216 2.2635,2.324 C 15.9946,33.6 24,33.6 24,33.6 c 0,0 8.0054,0 10.0016,-0.5492 1.1015,-0.3024 1.969,-1.193 2.2634,-2.324 C 36.8,28.6768 36.8,24.4 36.8,24.4 c 0,0 0,-4.277 -0.535,-6.3268 z" clip-rule="evenodd"/><path id="path2" fill="#000" fill-rule="evenodd" d="m 21.6,28.8 v -8 l 6.4,4.0001 z" clip-rule="evenodd"/></svg>