<?xml version="1.0" encoding="UTF-8" standalone="no"?>
<svg
   height="64"
   version="1.1"
   viewBox="0 0 64 64"
   width="64"
   aria-label="currículo de freeCodeCamp"
   data-playwright-test-label="header-logo"
   id="svg30"
   sodipodi:docname="FreeCodeCamp.svg"
   inkscape:version="1.3.2 (091e20e, 2023-11-25, custom)"
   xmlns:inkscape="http://www.inkscape.org/namespaces/inkscape"
   xmlns:sodipodi="http://sodipodi.sourceforge.net/DTD/sodipodi-0.dtd"
   xmlns:xlink="http://www.w3.org/1999/xlink"
   xmlns="http://www.w3.org/2000/svg"
   xmlns:svg="http://www.w3.org/2000/svg">
  <sodipodi:namedview
     id="namedview30"
     pagecolor="#ffffff"
     bordercolor="#999999"
     borderopacity="1"
     inkscape:showpageshadow="2"
     inkscape:pageopacity="0"
     inkscape:pagecheckerboard="0"
     inkscape:deskcolor="#d1d1d1"
     inkscape:zoom="3.2190476"
     inkscape:cx="69.585799"
     inkscape:cy="11.649408"
     inkscape:window-width="1920"
     inkscape:window-height="991"
     inkscape:window-x="-9"
     inkscape:window-y="-9"
     inkscape:window-maximized="1"
     inkscape:current-layer="layer1" />
  <defs
     id="defs1">
    <path
       d="m 35.42,5.56 0.43,0.05 0.42,0.08 0.39,0.09 0.37,0.12 0.36,0.14 0.32,0.16 0.31,0.18 0.28,0.21 0.27,0.22 0.24,0.24 0.22,0.27 0.2,0.28 0.18,0.31 0.16,0.33 0.13,0.35 0.12,0.37 0.09,0.39 0.08,0.41 0.05,0.44 0.03,0.45 0.01,0.47 v 0.12 0.11 l -0.01,0.1 -0.04,0.2 -0.04,0.18 -0.03,0.08 -0.07,0.15 -0.04,0.06 -0.05,0.06 -0.04,0.06 -0.06,0.05 -0.05,0.05 -0.06,0.03 -0.06,0.04 -0.07,0.03 -0.08,0.02 -0.07,0.02 -0.16,0.02 h -8.9 v -0.07 h -0.02 v 1.84 l 0.01,0.24 0.03,0.24 0.03,0.23 0.06,0.22 0.07,0.2 0.09,0.2 0.1,0.17 0.12,0.18 0.13,0.15 0.15,0.16 0.17,0.13 0.18,0.13 0.2,0.11 0.21,0.11 0.23,0.09 0.24,0.09 0.27,0.06 0.27,0.07 0.3,0.05 0.31,0.03 0.32,0.03 0.34,0.02 0.36,0.01 h 0.13 l 0.13,-0.01 h 0.13 l 0.12,-0.01 h 0.13 l 0.24,-0.02 0.23,-0.02 0.11,-0.01 0.11,-0.02 0.21,-0.03 0.1,-0.01 0.1,-0.02 0.29,-0.06 0.09,-0.03 0.09,-0.02 0.08,-0.03 0.09,-0.03 0.08,-0.03 0.05,-0.01 0.15,-0.06 0.06,-0.03 0.06,-0.02 0.12,-0.06 0.21,-0.11 0.08,-0.04 0.07,-0.05 0.17,-0.09 0.08,-0.05 0.09,-0.05 0.09,-0.06 0.19,-0.13 0.1,-0.06 0.1,-0.07 0.11,-0.07 0.12,-0.12 0.13,-0.1 0.06,-0.05 0.05,-0.04 0.06,-0.04 0.05,-0.05 0.09,-0.07 0.1,-0.06 0.04,-0.03 0.04,-0.02 0.04,-0.03 0.07,-0.03 0.03,-0.01 0.04,-0.01 0.02,-0.01 0.05,-0.01 h 0.09 l 0.1,0.01 0.15,0.03 0.04,0.02 0.07,0.04 0.04,0.03 0.09,0.09 0.03,0.04 0.04,0.08 0.01,0.05 0.02,0.05 0.01,0.06 0.02,0.1 v 0.07 0.07 0.06 l -0.01,0.07 -0.01,0.06 -0.01,0.07 -0.06,0.2 -0.03,0.06 -0.04,0.07 -0.03,0.07 -0.04,0.07 -0.05,0.07 -0.05,0.06 -0.1,0.14 -0.13,0.13 -0.13,0.14 -0.16,0.14 -0.09,0.06 -0.08,0.08 -0.15,0.1 -0.15,0.11 -0.32,0.2 -0.17,0.09 -0.18,0.09 -0.18,0.08 -0.19,0.07 -0.19,0.08 -0.21,0.07 -0.42,0.12 -0.22,0.05 -0.23,0.05 -0.47,0.09 -0.5,0.06 -0.52,0.04 -0.27,0.01 -0.28,0.01 H 34.36 33.88 L 33.41,18.78 32.96,18.74 32.54,18.67 32.13,18.6 31.75,18.51 31.39,18.4 31.05,18.27 30.74,18.12 30.44,17.96 30.17,17.78 29.91,17.58 29.69,17.37 29.48,17.14 29.29,16.89 29.13,16.63 28.99,16.34 28.86,16.05 28.76,15.73 28.69,15.39 28.63,15.04 28.6,14.67 28.59,14.28 V 9.57 l 0.01,-0.14 0.01,-0.12 0.01,-0.13 0.04,-0.26 0.04,-0.13 0.03,-0.12 0.08,-0.24 0.1,-0.24 0.12,-0.23 0.06,-0.11 0.07,-0.12 0.08,-0.1 0.08,-0.11 0.08,-0.1 0.09,-0.11 0.19,-0.2 0.23,-0.23 0.3,-0.24 0.15,-0.11 0.17,-0.11 0.17,-0.1 0.17,-0.09 0.18,-0.09 0.38,-0.16 0.2,-0.07 0.42,-0.12 0.22,-0.05 0.23,-0.05 0.22,-0.04 0.24,-0.03 0.24,-0.04 0.24,-0.02 0.25,-0.02 0.52,-0.02 h 0.27 l 0.47,0.01 z m -2.04,1.6 -0.41,0.07 -0.39,0.1 -0.38,0.13 -0.37,0.15 -0.35,0.18 -0.32,0.25 -0.27,0.26 -0.23,0.28 -0.19,0.3 -0.13,0.31 -0.08,0.32 -0.03,0.35 v 0.96 h 8.19 L 38.33,9.84 38.08,9.01 37.65,8.32 37.05,7.79 36.29,7.41 35.34,7.18 34.23,7.11 33.8,7.12 Z"
       id="k" />
    <path
       d="m 107.21,5.56 0.43,0.05 0.42,0.08 0.39,0.09 0.37,0.12 0.35,0.14 0.33,0.16 0.31,0.18 0.29,0.21 0.26,0.22 0.24,0.24 0.22,0.27 0.21,0.28 0.17,0.31 0.16,0.33 0.14,0.35 0.11,0.37 0.1,0.39 0.07,0.41 0.05,0.44 0.03,0.45 0.01,0.47 v 0.12 l -0.01,0.11 -0.02,0.2 -0.02,0.1 -0.02,0.09 -0.03,0.09 -0.02,0.08 -0.03,0.07 -0.04,0.08 -0.04,0.06 -0.1,0.12 -0.1,0.1 -0.13,0.07 -0.13,0.05 -0.08,0.02 -0.16,0.02 -8.92,0.01 v 1.76 l 0.01,0.24 0.02,0.24 0.04,0.23 0.06,0.22 0.07,0.2 0.08,0.2 0.11,0.17 0.11,0.18 0.14,0.15 0.15,0.16 0.17,0.13 0.18,0.13 0.19,0.11 0.22,0.11 0.23,0.09 0.24,0.09 0.26,0.06 0.28,0.07 0.3,0.05 0.31,0.03 0.32,0.03 0.34,0.02 0.36,0.01 h 0.13 l 0.13,-0.01 h 0.13 l 0.25,-0.01 0.24,-0.02 0.22,-0.02 0.12,-0.01 0.11,-0.02 0.31,-0.04 0.2,-0.04 0.19,-0.04 0.09,-0.03 0.09,-0.02 0.09,-0.03 0.08,-0.03 0.13,-0.04 0.04,-0.02 0.06,-0.02 0.05,-0.02 0.06,-0.03 0.05,-0.02 0.07,-0.03 0.2,-0.1 0.14,-0.08 0.08,-0.05 0.08,-0.04 0.08,-0.05 0.18,-0.1 0.18,-0.12 0.2,-0.13 0.1,-0.07 0.11,-0.07 0.06,-0.06 0.07,-0.06 0.05,-0.05 0.07,-0.05 0.05,-0.05 0.06,-0.04 0.11,-0.09 0.05,-0.03 0.05,-0.04 0.04,-0.03 0.05,-0.03 0.04,-0.03 0.04,-0.02 0.04,-0.03 0.07,-0.03 0.12,-0.04 h 0.02 0.09 0.05 l 0.06,0.01 0.09,0.02 0.05,0.01 0.12,0.06 0.12,0.12 0.03,0.04 0.04,0.08 0.01,0.05 0.02,0.05 0.02,0.11 0.01,0.05 V 15.87 16 l -0.01,0.07 -0.01,0.06 -0.01,0.07 -0.04,0.14 -0.02,0.06 -0.03,0.06 -0.04,0.07 -0.03,0.07 -0.09,0.14 -0.05,0.06 -0.05,0.07 -0.11,0.14 -0.21,0.2 -0.23,0.2 -0.09,0.08 -0.3,0.21 -0.15,0.1 -0.17,0.1 -0.17,0.09 -0.18,0.09 -0.18,0.08 -0.19,0.07 -0.2,0.08 -0.2,0.07 -0.42,0.12 -0.22,0.05 -0.23,0.05 -0.23,0.04 -0.24,0.05 -0.5,0.06 -0.52,0.04 -0.55,0.02 h -0.28 -0.49 l -0.46,-0.03 -0.45,-0.04 -0.43,-0.07 -0.39,-0.07 -0.39,-0.09 -0.36,-0.11 -0.33,-0.13 -0.33,-0.15 -0.29,-0.16 -0.27,-0.18 -0.25,-0.2 -0.23,-0.21 -0.22,-0.23 -0.18,-0.25 -0.17,-0.26 -0.14,-0.29 -0.12,-0.29 -0.1,-0.32 -0.08,-0.34 -0.05,-0.35 -0.04,-0.37 -0.01,-0.39 V 9.7 l 0.01,-0.13 V 9.43 l 0.02,-0.12 0.01,-0.13 0.02,-0.13 0.05,-0.26 0.12,-0.36 0.1,-0.24 0.11,-0.23 0.07,-0.11 0.07,-0.12 0.07,-0.1 0.09,-0.11 0.08,-0.1 0.09,-0.11 0.19,-0.2 0.1,-0.1 0.14,-0.13 0.14,-0.12 0.15,-0.12 0.15,-0.11 0.17,-0.11 0.17,-0.1 0.17,-0.09 0.19,-0.09 0.18,-0.08 0.19,-0.08 0.2,-0.07 0.42,-0.12 0.44,-0.1 0.23,-0.04 0.23,-0.03 0.25,-0.04 0.24,-0.02 0.25,-0.02 0.52,-0.02 h 0.27 l 0.48,0.01 z m -2.04,1.6 -0.41,0.07 -0.39,0.1 -0.38,0.13 -0.37,0.15 -0.34,0.18 -0.34,0.25 -0.29,0.26 -0.23,0.28 -0.17,0.3 -0.13,0.31 -0.07,0.32 -0.03,0.35 v 0.96 h 8.19 l -0.09,-0.98 -0.25,-0.83 -0.43,-0.69 -0.6,-0.53 -0.76,-0.38 -0.95,-0.23 -1.11,-0.07 -0.43,0.01 z"
       id="j" />
    <path
       d="m 203.57,0.17 c -0.12,0.12 -0.24,0.29 -0.24,0.45 0,0.29 0.34,0.69 0.97,1.33 2.63,2.53 3.95,5.62 3.94,9.35 -0.01,4.13 -1.4,7.45 -4.1,10.01 -0.57,0.51 -0.8,0.91 -0.8,1.25 0,0.17 0.12,0.34 0.23,0.51 0.11,0.12 0.34,0.23 0.51,0.23 0.62,0 1.5,-0.73 2.64,-2.17 2.22,-2.72 3.22,-5.73 3.28,-9.82 0.05,-4.1 -1.23,-6.88 -3.75,-9.75 C 205.35,0.53 204.59,0 204.08,0 c -0.17,0 -0.35,0.06 -0.51,0.17 z"
       id="b" />
    <path
       d="m 124.75,1.76 c 1.14,0.86 1.73,2.07 1.73,3.55 0,0.68 -0.29,1.02 -0.86,1.02 -0.39,0 -0.68,-0.34 -0.85,-1.02 -0.11,-0.57 -0.34,-1.08 -0.62,-1.62 -0.52,-0.9 -1.61,-1.32 -3.32,-1.32 -1.49,0 -2.52,0.34 -3.14,1.08 -0.57,0.68 -0.91,1.72 -0.91,3.26 v 5.95 c 0,1.55 0.34,2.63 0.97,3.31 0.68,0.74 1.72,1.13 3.2,1.13 2.23,0 3.54,-0.79 3.82,-2.34 0.12,-0.57 0.17,-0.86 0.17,-0.91 0.12,-0.34 0.35,-0.51 0.68,-0.51 0.57,0 0.86,0.34 0.86,1.02 0,1.44 -0.57,2.52 -1.78,3.38 -0.97,0.62 -2.18,0.96 -3.77,0.96 -1.84,0 -3.26,-0.4 -4.3,-1.25 -1.16,-0.8 -1.73,-2.16 -1.73,-3.94 V 6.35 c 0,-3.77 1.95,-5.61 5.95,-5.61 1.61,0 2.86,0.34 3.9,1.02 z"
       id="n" />
    <path
       d="m 14.21,6.57 c 0,-0.56 0.34,-0.79 1.02,-0.79 h 3.32 c 0.57,0 0.85,0.51 0.85,1.44 1.02,-1.08 2.12,-1.73 3.26,-1.73 0.96,0 1.72,0.29 2.23,0.86 0.57,0.57 0.8,1.38 0.8,2.29 0,0.63 -0.29,0.97 -0.8,0.97 -0.34,0 -0.57,-0.23 -0.68,-0.63 -0.23,-0.8 -0.34,-1.19 -0.4,-1.25 -0.22,-0.39 -0.68,-0.62 -1.25,-0.62 -0.62,0 -1.25,0.23 -1.78,0.68 -0.34,0.23 -0.8,0.74 -1.38,1.49 v 7.67 h 3.08 c 0.68,0 1.03,0.29 1.03,0.8 0,0.57 -0.35,0.86 -1.03,0.86 h -7.33 c -0.68,0 -1.02,-0.29 -1.02,-0.8 0,-0.57 0.34,-0.8 1.02,-0.8 h 2.52 v -0.07 h 0.02 V 7.37 h -2.46 c -0.68,0 -1.02,-0.28 -1.02,-0.8 z"
       id="l" />
    <path
       d="m 96.68,0.04 0.06,0.02 0.06,0.03 0.05,0.03 0.06,0.04 0.13,0.13 0.03,0.06 0.04,0.06 0.03,0.07 0.02,0.07 0.04,0.16 0.04,0.18 0.01,0.2 v 0.1 16.84 0.08 l -0.01,0.07 v 0.07 l -0.04,0.13 -0.01,0.05 -0.03,0.06 -0.02,0.05 -0.06,0.09 -0.07,0.08 -0.05,0.03 -0.04,0.03 -0.05,0.03 -0.1,0.04 -0.06,0.02 -0.12,0.02 -0.07,0.01 H 96.41 L 96.28,18.87 96.24,18.86 96.2,18.84 96.16,18.83 96.13,18.81 96.1,18.8 96.07,18.77 96.04,18.75 95.98,18.7 95.96,18.67 95.89,18.55 95.88,18.51 95.86,18.46 95.85,18.42 95.83,18.37 V 18.32 18.24 18.2 18.16 L 95.82,18.12 V 18.08 L 95.81,18.04 V 18 17.96 L 95.8,17.91 V 17.87 17.82 L 95.79,17.73 V 17.67 L 95.78,17.63 V 17.57 17.46 L 95.77,17.4 v -0.13 l -0.13,0.09 -0.13,0.08 -0.13,0.09 -0.24,0.14 -0.11,0.08 -0.12,0.07 -0.21,0.12 -0.1,0.06 -0.09,0.06 -0.1,0.05 -0.25,0.14 -0.14,0.08 -0.14,0.06 -0.12,0.05 -0.05,0.02 -0.09,0.04 -0.09,0.03 -0.09,0.02 -0.19,0.06 -0.4,0.08 -0.21,0.03 -0.22,0.03 -0.11,0.02 -0.23,0.02 h -0.12 l -0.12,0.01 h -0.11 l -0.12,0.01 h -0.46 l -0.21,-0.01 -0.2,-0.01 -0.2,-0.02 -0.19,-0.01 -0.2,-0.03 -0.18,-0.02 -0.37,-0.07 -0.34,-0.08 -0.18,-0.05 -0.32,-0.1 -0.32,-0.12 -0.15,-0.07 -0.15,-0.06 -0.42,-0.24 -0.13,-0.08 -0.14,-0.1 -0.28,-0.22 -0.12,-0.11 -0.12,-0.13 -0.11,-0.12 -0.11,-0.13 -0.1,-0.14 L 86.52,16.75 86.35,16.46 86.28,16.31 86.21,16.15 86.15,15.99 86.1,15.83 86.05,15.65 86.01,15.47 85.98,15.3 85.96,15.11 85.93,14.92 85.92,14.73 V 9.52 l 0.01,-0.19 0.03,-0.18 0.02,-0.18 0.03,-0.18 0.08,-0.34 0.05,-0.16 0.06,-0.16 0.06,-0.15 0.08,-0.15 0.07,-0.15 0.18,-0.28 0.2,-0.26 0.1,-0.12 0.24,-0.24 0.26,-0.22 0.14,-0.1 0.39,-0.24 0.15,-0.07 0.28,-0.14 0.31,-0.12 0.15,-0.05 0.33,-0.1 0.33,-0.08 0.72,-0.12 0.37,-0.03 0.38,-0.02 h 0.45 l 0.25,0.02 h 0.12 0.13 l 0.12,0.02 0.12,0.01 0.22,0.02 0.22,0.04 0.11,0.01 0.21,0.04 0.1,0.02 0.09,0.02 0.28,0.08 0.09,0.03 0.09,0.04 0.08,0.03 0.09,0.03 0.08,0.04 0.09,0.03 0.09,0.04 0.1,0.05 0.17,0.09 0.29,0.16 0.09,0.05 0.29,0.19 0.2,0.14 0.09,0.07 0.4,0.32 V 1.19 l 0.01,-0.1 V 0.89 L 95.65,0.71 95.66,0.63 95.69,0.55 95.71,0.48 95.74,0.41 95.77,0.35 95.81,0.29 95.85,0.25 95.89,0.2 95.93,0.16 95.98,0.12 96.08,0.06 96.14,0.04 96.27,0.01 96.33,0 h 0.14 l 0.07,0.01 z m -5.7,7.19 -0.26,0.03 -0.26,0.02 -0.25,0.05 -0.24,0.05 -0.23,0.05 -0.42,0.16 -0.19,0.09 -0.18,0.1 -0.2,0.15 -0.2,0.16 -0.17,0.17 -0.15,0.17 -0.14,0.19 -0.11,0.2 -0.1,0.2 -0.08,0.23 -0.05,0.23 -0.04,0.23 -0.01,0.26 v 4.52 l 0.01,0.26 0.03,0.25 0.05,0.23 0.07,0.23 0.09,0.21 0.12,0.2 0.13,0.19 0.16,0.17 0.17,0.16 0.2,0.14 0.22,0.14 0.19,0.09 0.42,0.16 0.22,0.07 0.22,0.06 0.24,0.06 0.25,0.04 0.26,0.04 0.27,0.03 0.56,0.02 0.47,-0.01 0.44,-0.04 0.43,-0.06 0.21,-0.04 0.2,-0.06 0.38,-0.12 0.17,-0.07 0.14,-0.1 0.16,-0.11 0.15,-0.11 0.16,-0.12 0.17,-0.12 0.16,-0.13 0.18,-0.13 0.17,-0.15 0.18,-0.15 0.36,-0.32 V 8.81 L 95.5,8.65 95.29,8.51 95.09,8.37 94.89,8.24 94.7,8.12 94.52,8.01 94.35,7.9 94.19,7.81 93.89,7.67 93.76,7.61 93.57,7.54 93.19,7.42 92.99,7.37 92.59,7.29 92.38,7.26 92.17,7.24 91.96,7.23 91.53,7.22 h -0.28 z"
       id="c" />
    <path
       d="m 195.66,12.04 c -0.99,-0.25 3.06,-5.03 -4.13,-10.75 0,0 0.94,3 -3.81,9.69 -4.76,6.68 2.11,10.66 2.11,10.66 0,0 -3.22,-1.72 0.53,-7.84 0.67,-1.11 1.55,-2.11 2.64,-4.38 0,0 0.96,1.37 0.46,4.32 -0.75,4.47 3.27,3.19 3.33,3.25 1.41,1.65 -1.16,4.56 -1.32,4.65 -0.16,0.09 7.34,-4.5 2.01,-11.42 -0.36,0.36 -0.83,2.08 -1.82,1.82 z"
       id="e" />
    <path
       d="m 135.26,5.37 0.19,0.01 0.18,0.02 0.18,0.01 0.18,0.02 0.34,0.04 0.16,0.02 0.16,0.04 0.15,0.02 0.14,0.04 0.15,0.03 0.28,0.08 0.26,0.08 0.36,0.15 0.12,0.06 0.11,0.05 0.1,0.06 0.11,0.06 0.12,0.08 0.1,0.09 0.11,0.09 0.2,0.2 0.18,0.22 0.16,0.24 0.07,0.12 0.14,0.26 0.12,0.29 0.05,0.14 0.04,0.15 0.05,0.16 0.04,0.15 0.03,0.17 0.02,0.16 0.04,0.36 0.01,0.18 0.02,0.18 v 6.1 0.08 0.08 l 0.02,0.28 0.01,0.07 0.02,0.12 0.02,0.06 0.01,0.06 0.03,0.11 0.02,0.05 0.06,0.14 0.03,0.04 0.02,0.04 0.03,0.04 0.06,0.07 0.08,0.08 0.02,0.01 v 0.01 h 0.03 l 0.01,0.02 0.05,0.02 0.02,0.01 0.05,0.02 0.03,0.02 0.04,0.01 0.11,0.04 0.12,0.05 0.1,0.04 0.04,0.01 0.05,0.02 0.05,0.03 0.09,0.03 0.07,0.03 0.02,0.02 0.03,0.02 0.05,0.04 0.02,0.02 0.02,0.03 0.02,0.02 0.04,0.06 0.03,0.06 0.01,0.04 0.01,0.03 0.02,0.08 v 0.04 l 0.01,0.04 0.01,0.05 v 0.05 l 0.01,0.05 v 0.21 l -0.02,0.05 v 0.04 l -0.01,0.05 -0.01,0.04 -0.02,0.04 -0.01,0.04 -0.02,0.03 -0.03,0.04 -0.05,0.06 -0.02,0.03 -0.04,0.02 -0.11,0.06 -0.08,0.04 -0.1,0.02 -0.1,0.01 h -0.06 -0.11 -0.02 -0.01 l -0.03,-0.01 h -0.02 -0.02 l -0.1,-0.02 -0.03,-0.02 h -0.03 l -0.06,-0.02 -0.11,-0.03 -0.12,-0.03 -0.05,-0.01 -0.04,-0.01 -0.05,-0.02 -0.21,-0.07 -0.07,-0.02 -0.07,-0.03 -0.24,-0.08 -0.1,-0.04 -0.05,-0.01 -0.04,-0.02 -0.05,-0.01 -0.04,-0.01 -0.04,-0.02 -0.03,-0.01 -0.07,-0.02 -0.07,-0.03 -0.03,-0.01 -0.01,-0.01 -0.02,-0.01 h -0.03 -0.04 l -0.03,-0.02 -0.03,-0.01 -0.04,-0.01 -0.02,-0.02 -0.06,-0.04 -0.03,-0.03 -0.02,-0.03 -0.03,-0.03 -0.02,-0.03 -0.02,-0.04 -0.03,-0.04 -0.02,-0.04 -0.01,-0.04 -0.03,-0.04 -0.02,-0.05 -0.03,-0.09 -0.06,-0.21 -0.02,-0.06 -0.23,0.16 -0.22,0.15 -0.1,0.07 -0.2,0.12 -0.1,0.07 -0.34,0.22 -0.08,0.04 -0.07,0.05 -0.21,0.12 -0.06,0.04 -0.16,0.08 -0.05,0.02 -0.09,0.04 -0.04,0.01 -0.06,0.04 -0.07,0.02 -0.15,0.05 -0.4,0.1 -0.08,0.01 -0.18,0.03 -0.09,0.01 -0.09,0.02 -0.28,0.03 -0.2,0.02 h -0.1 l -0.11,0.01 h -0.1 -0.49 -0.16 l -0.16,-0.01 -0.31,-0.02 -0.3,-0.03 -0.15,-0.02 -0.15,-0.03 -0.28,-0.05 -0.27,-0.06 -0.14,-0.04 -0.13,-0.04 -0.12,-0.04 -0.13,-0.05 -0.24,-0.09 -0.12,-0.06 -0.11,-0.05 -0.11,-0.06 -0.11,-0.07 -0.11,-0.06 -0.1,-0.07 -0.24,-0.16 -0.22,-0.19 -0.1,-0.1 -0.09,-0.1 -0.1,-0.1 -0.24,-0.33 -0.14,-0.24 -0.06,-0.12 -0.06,-0.13 -0.05,-0.12 -0.05,-0.13 -0.08,-0.27 -0.06,-0.28 -0.04,-0.3 -0.02,-0.3 v -0.32 l 0.01,-0.15 0.01,-0.16 0.02,-0.14 0.05,-0.3 0.07,-0.28 0.05,-0.14 0.11,-0.26 0.12,-0.26 0.15,-0.24 0.16,-0.22 0.09,-0.11 0.1,-0.11 0.2,-0.2 0.11,-0.09 0.23,-0.18 0.13,-0.08 0.33,-0.24 0.24,-0.13 0.26,-0.13 0.13,-0.05 0.26,-0.11 0.14,-0.05 0.42,-0.12 0.15,-0.03 0.14,-0.04 0.15,-0.02 0.15,-0.03 0.16,-0.02 0.15,-0.01 0.16,-0.02 0.48,-0.03 h 0.3 l 0.13,0.01 h 0.14 l 0.29,0.02 0.14,0.02 0.15,0.02 0.14,0.02 0.16,0.02 0.14,0.02 0.15,0.04 0.16,0.02 0.15,0.03 0.32,0.08 0.49,0.12 0.16,0.05 0.51,0.15 0.36,0.12 0.17,0.06 V 9.55 9.43 l -0.01,-0.11 -0.01,-0.1 -0.01,-0.12 -0.02,-0.09 -0.02,-0.11 -0.04,-0.1 -0.03,-0.1 -0.03,-0.09 -0.05,-0.09 -0.04,-0.09 -0.11,-0.16 -0.06,-0.09 -0.06,-0.07 -0.07,-0.08 -0.15,-0.14 -0.08,-0.07 -0.18,-0.12 -0.1,-0.06 -0.2,-0.1 -0.11,-0.06 -0.07,-0.03 -0.16,-0.06 -0.34,-0.11 -0.26,-0.06 -0.1,-0.02 -0.09,-0.01 -0.1,-0.02 -0.09,-0.01 -0.3,-0.03 -0.1,-0.02 h -0.1 L 135,7.1 134.9,7.09 h -0.11 -0.1 -0.47 l -0.25,0.01 -0.24,0.01 -0.23,0.02 -0.42,0.06 -0.2,0.03 -0.19,0.04 -0.17,0.05 -0.17,0.06 -0.16,0.05 -0.15,0.07 -0.14,0.07 -0.13,0.07 -0.12,0.09 -0.12,0.08 -0.1,0.1 -0.09,0.1 -0.09,0.11 -0.08,0.11 -0.06,0.11 -0.06,0.13 -0.05,0.13 -0.04,0.14 -0.03,0.14 -0.01,0.07 -0.02,0.06 -0.04,0.22 -0.02,0.09 -0.01,0.05 -0.01,0.04 -0.01,0.03 v 0.04 l -0.02,0.06 -0.01,0.06 -0.01,0.04 v 0.02 l -0.01,0.02 v 0.01 0.01 0.03 l -0.02,0.03 -0.03,0.07 -0.01,0.02 -0.05,0.06 -0.01,0.02 -0.03,0.02 -0.05,0.05 -0.02,0.01 -0.02,0.02 -0.03,0.01 -0.03,0.02 -0.09,0.03 -0.04,0.01 -0.06,0.02 h -0.04 -0.04 l -0.03,0.01 h -0.15 l -0.06,-0.01 -0.13,-0.02 -0.06,-0.01 -0.15,-0.06 -0.1,-0.06 -0.04,-0.04 -0.04,-0.03 -0.08,-0.08 -0.03,-0.05 -0.05,-0.09 -0.03,-0.06 -0.01,-0.06 -0.04,-0.12 -0.01,-0.06 V 9.3 L 129.17,9.22 V 9.05 l 0.01,-0.1 v -0.1 l 0.02,-0.1 0.01,-0.1 0.04,-0.2 0.05,-0.2 0.03,-0.1 0.03,-0.09 0.08,-0.2 0.05,-0.1 0.09,-0.19 0.18,-0.28 0.06,-0.09 0.07,-0.09 0.22,-0.27 0.08,-0.09 0.1,-0.11 0.22,-0.2 0.12,-0.09 0.26,-0.18 0.14,-0.08 0.15,-0.08 0.16,-0.08 0.15,-0.06 0.17,-0.07 0.18,-0.06 0.18,-0.05 0.38,-0.1 0.2,-0.04 0.42,-0.08 0.44,-0.05 0.46,-0.04 0.24,-0.01 h 0.25 l 0.25,-0.01 h 0.2 l 0.2,0.01 z m -2.41,7.31 -0.68,0.24 -0.54,0.35 -0.38,0.44 -0.23,0.54 -0.07,0.64 0.02,0.34 0.06,0.31 0.11,0.3 0.15,0.27 0.2,0.25 0.25,0.2 0.29,0.17 0.25,0.13 0.28,0.12 0.3,0.09 0.32,0.08 0.34,0.05 0.36,0.03 0.38,0.01 0.34,-0.01 0.32,-0.02 0.32,-0.04 0.31,-0.07 0.3,-0.07 0.3,-0.11 0.29,-0.13 0.2,-0.12 0.22,-0.15 0.25,-0.16 0.26,-0.18 0.28,-0.21 0.3,-0.22 0.31,-0.23 v -2.41 l -0.54,-0.16 -0.53,-0.14 -0.53,-0.11 -0.52,-0.09 -0.51,-0.07 -0.49,-0.04 -0.48,-0.01 -0.98,0.05 z"
       id="m" />
    <path
       d="M 0.97,5.8 H 2.81 V 4.19 C 2.81,1.39 4.25,0 7.05,0 c 1.14,0 2.12,0.23 2.86,0.63 0.96,0.57 1.5,1.5 1.5,2.58 0,0.73 -0.29,1.02 -0.8,1.02 C 10.27,4.23 9.93,4 9.75,3.6 9.53,2.87 9.3,2.47 9.19,2.28 8.85,1.88 8.16,1.65 7.18,1.65 5.46,1.65 4.61,2.5 4.61,4.23 V 5.78 H 7.92 C 8.66,5.78 9,6.07 9,6.57 9,7.14 8.66,7.37 7.92,7.37 H 4.61 v 10.48 c 0,0.62 -0.29,0.96 -0.8,0.96 -0.57,0 -0.8,-0.34 -0.8,-0.96 V 7.39 H 0.97 C 0.34,7.39 0,7.11 0,6.6 0,6.02 0.34,5.8 0.97,5.8 Z"
       id="a" />
    <path
       d="m 78.8,5.55 0.61,0.08 0.56,0.12 0.52,0.15 0.48,0.18 0.43,0.22 0.38,0.25 0.34,0.29 0.29,0.32 0.25,0.35 0.21,0.39 0.16,0.42 0.11,0.45 0.07,0.49 0.02,0.51 v 4.71 l -0.02,0.52 -0.07,0.48 -0.11,0.46 -0.15,0.42 -0.2,0.38 -0.24,0.35 -0.29,0.32 -0.33,0.29 -0.38,0.25 -0.42,0.22 -0.47,0.19 -0.51,0.15 -0.55,0.11 -0.6,0.09 -0.64,0.05 -0.68,0.02 -0.72,-0.01 -0.68,-0.04 -0.63,-0.08 -0.58,-0.11 -0.53,-0.15 -0.48,-0.18 -0.43,-0.22 -0.39,-0.25 -0.34,-0.29 -0.3,-0.32 L 72.24,16.77 72.03,16.39 71.88,15.96 71.77,15.5 71.7,15.01 71.68,14.48 V 9.77 L 71.7,9.26 71.77,8.77 71.88,8.32 72.04,7.9 72.24,7.51 72.5,7.16 72.79,6.84 73.13,6.55 73.52,6.3 73.95,6.08 74.42,5.9 74.94,5.75 75.5,5.63 l 0.61,-0.08 0.65,-0.06 0.7,-0.01 0.69,0.01 z m -2.67,1.61 -0.53,0.1 -0.47,0.13 -0.42,0.17 -0.37,0.21 -0.31,0.24 -0.25,0.28 -0.2,0.32 -0.14,0.35 -0.09,0.39 -0.02,0.42 v 4.71 l 0.02,0.42 0.09,0.39 0.14,0.36 0.21,0.31 0.26,0.28 0.31,0.24 0.37,0.2 0.43,0.17 0.49,0.12 0.55,0.09 0.6,0.04 h 0.66 0.64 l 0.59,-0.04 0.54,-0.08 0.48,-0.12 0.42,-0.16 0.37,-0.2 0.31,-0.23 0.26,-0.28 0.2,-0.32 0.14,-0.36 0.09,-0.4 0.03,-0.43 V 9.77 L 81.5,9.35 81.41,8.96 81.27,8.61 81.07,8.29 80.8,8.01 80.49,7.77 80.11,7.56 79.67,7.39 79.18,7.26 78.63,7.16 78.01,7.11 77.34,7.09 76.71,7.11 Z"
       id="i" />
    <path
       d="m 181.88,0.18 c 0.12,0.11 0.23,0.28 0.23,0.45 0,0.29 -0.34,0.68 -0.97,1.32 -2.62,2.53 -3.94,5.62 -3.93,9.36 0.01,4.12 1.4,7.44 4.1,10.01 0.56,0.5 0.8,0.9 0.8,1.24 0,0.17 -0.12,0.35 -0.23,0.51 -0.11,0.12 -0.34,0.24 -0.51,0.24 -0.63,0 -1.5,-0.74 -2.64,-2.18 -2.22,-2.72 -3.22,-5.72 -3.28,-9.82 -0.05,-4.1 1.23,-6.88 3.75,-9.75 0.9,-1.02 1.66,-1.56 2.17,-1.56 0.17,0 0.34,0.06 0.51,0.18 z"
       id="f" />
    <path
       d="m 149.59,6.94 c 0.45,-0.57 0.85,-0.92 1.25,-1.08 0.39,-0.23 0.96,-0.34 1.6,-0.34 1.96,0 2.98,0.96 2.98,2.85 v 9.29 c 0,0.79 -0.28,1.14 -0.85,1.14 -0.57,0 -0.8,-0.35 -0.8,-1.14 v -8.7 c 0,-1.19 -0.51,-1.83 -1.49,-1.83 -0.74,0 -1.5,0.45 -2.12,1.32 v 9.29 c 0,0.79 -0.29,1.13 -0.8,1.13 -0.51,0 -0.8,-0.34 -0.8,-1.13 V 9.15 c 0,-1.33 -0.56,-1.95 -1.61,-1.95 -0.68,0 -1.32,0.46 -2,1.33 v 9.22 c 0,0.8 -0.29,1.14 -0.86,1.14 -0.57,0 -0.79,-0.34 -0.79,-1.14 V 6.37 c 0,-0.57 0.22,-0.8 0.68,-0.8 0.23,0 0.45,0.17 0.57,0.51 0.11,0.15 0.17,0.44 0.17,0.78 0.53,-0.57 0.87,-0.91 1.02,-1.03 0.34,-0.22 0.8,-0.34 1.44,-0.34 0.91,0 1.72,0.46 2.41,1.45 z"
       id="g" />
    <path
       d="m 49.79,5.56 0.44,0.05 0.41,0.08 0.4,0.09 0.37,0.12 0.35,0.14 0.33,0.16 0.31,0.18 0.28,0.21 0.27,0.22 0.24,0.24 0.22,0.27 0.2,0.28 0.18,0.31 0.16,0.33 0.13,0.35 0.11,0.37 0.1,0.39 0.07,0.41 0.06,0.44 0.03,0.45 0.01,0.47 v 0.12 l -0.01,0.11 -0.01,0.1 -0.03,0.2 -0.02,0.09 -0.03,0.09 -0.02,0.08 -0.08,0.15 -0.03,0.06 -0.1,0.12 -0.05,0.05 -0.06,0.05 -0.05,0.03 -0.07,0.04 -0.07,0.03 -0.14,0.04 -0.08,0.01 -0.09,0.01 h -8.89 v -0.07 h -0.02 v 1.84 l 0.01,0.24 0.02,0.24 0.04,0.23 0.06,0.22 0.06,0.2 0.09,0.2 0.1,0.17 0.12,0.18 0.14,0.15 0.15,0.16 0.16,0.13 0.18,0.13 0.2,0.11 0.22,0.11 0.22,0.09 0.25,0.09 0.26,0.06 0.28,0.07 0.29,0.05 0.31,0.03 0.33,0.03 0.34,0.02 0.36,0.01 h 0.13 l 0.13,-0.01 h 0.12 l 0.13,-0.01 h 0.12 l 0.24,-0.02 0.23,-0.02 0.11,-0.01 0.12,-0.02 0.31,-0.04 0.1,-0.02 0.09,-0.02 0.1,-0.02 0.09,-0.02 0.1,-0.03 0.09,-0.02 0.16,-0.06 0.09,-0.03 0.04,-0.01 0.05,-0.02 0.06,-0.02 0.05,-0.02 0.05,-0.03 0.06,-0.02 0.06,-0.03 0.07,-0.03 0.14,-0.07 0.14,-0.08 0.08,-0.05 0.08,-0.04 0.08,-0.05 0.18,-0.1 0.08,-0.06 0.19,-0.13 0.1,-0.06 0.11,-0.07 0.1,-0.07 0.13,-0.12 0.13,-0.1 0.05,-0.05 0.06,-0.04 0.05,-0.04 0.06,-0.05 0.09,-0.07 0.09,-0.06 0.05,-0.03 0.04,-0.02 0.04,-0.03 0.07,-0.03 0.09,-0.03 0.05,-0.01 h 0.09 l 0.1,0.01 0.15,0.03 0.04,0.02 0.07,0.04 0.04,0.03 0.09,0.09 0.03,0.04 0.04,0.08 0.02,0.1 0.02,0.06 v 0.05 l 0.01,0.05 v 0.07 l 0.01,0.07 -0.01,0.06 v 0.07 l -0.01,0.06 -0.01,0.07 -0.07,0.2 -0.03,0.06 -0.06,0.14 -0.09,0.14 -0.05,0.06 -0.11,0.14 -0.12,0.13 -0.14,0.14 -0.16,0.14 -0.08,0.06 -0.08,0.08 -0.15,0.1 -0.15,0.11 -0.32,0.2 -0.17,0.09 -0.18,0.09 -0.18,0.08 -0.19,0.07 -0.2,0.08 -0.2,0.07 -0.21,0.06 -0.22,0.06 -0.44,0.1 -0.47,0.09 -0.5,0.06 -0.52,0.04 -0.55,0.02 H 48.74 48.25 L 47.78,18.78 47.34,18.74 46.91,18.67 46.51,18.6 46.13,18.51 45.77,18.4 45.43,18.27 45.11,18.12 44.82,17.96 44.55,17.78 44.29,17.58 44.06,17.37 43.85,17.14 43.66,16.89 43.5,16.63 43.36,16.34 43.24,16.05 43.14,15.73 43.06,15.39 43,15.04 42.97,14.67 42.96,14.28 V 9.57 l 0.01,-0.14 0.01,-0.12 0.06,-0.39 0.03,-0.13 0.03,-0.12 0.05,-0.12 0.08,-0.24 0.06,-0.12 0.11,-0.23 0.07,-0.11 0.07,-0.12 0.07,-0.1 0.08,-0.11 0.09,-0.1 0.09,-0.11 0.18,-0.2 0.1,-0.1 0.14,-0.13 0.29,-0.24 0.32,-0.22 0.17,-0.1 0.36,-0.18 0.38,-0.16 0.2,-0.07 0.42,-0.12 0.44,-0.1 0.23,-0.04 0.23,-0.03 0.24,-0.04 0.24,-0.02 0.26,-0.02 0.52,-0.02 h 0.26 l 0.48,0.01 z m -2.04,1.6 -0.4,0.07 -0.4,0.1 -0.38,0.13 -0.36,0.15 -0.35,0.18 -0.34,0.25 -0.28,0.26 -0.23,0.28 -0.17,0.3 -0.13,0.31 -0.08,0.32 -0.02,0.35 v 0.96 h 8.18 L 52.71,9.84 52.45,9.01 52.03,8.32 51.43,7.79 50.66,7.41 49.72,7.18 48.61,7.11 48.17,7.12 Z"
       id="h" />
    <path
       d="m 67.34,1.76 c 1.14,0.86 1.73,2.07 1.73,3.55 0,0.68 -0.29,1.02 -0.86,1.02 -0.4,0 -0.68,-0.34 -0.85,-1.02 C 67.24,4.74 67.02,4.23 66.74,3.69 66.22,2.79 65.13,2.37 63.42,2.37 c -1.5,0 -2.52,0.34 -3.14,1.08 -0.57,0.68 -0.92,1.72 -0.92,3.26 v 5.95 c 0,1.55 0.35,2.63 0.97,3.31 0.68,0.74 1.73,1.13 3.21,1.13 2.23,0 3.54,-0.79 3.82,-2.34 0.11,-0.57 0.17,-0.86 0.17,-0.91 0.11,-0.34 0.34,-0.51 0.68,-0.51 0.57,0 0.86,0.34 0.86,1.02 0,1.44 -0.58,2.52 -1.79,3.38 -0.96,0.62 -2.18,0.96 -3.77,0.96 -1.83,0 -3.25,-0.4 -4.3,-1.25 C 58,16.65 57.49,15.29 57.49,13.51 V 6.35 c 0,-3.77 1.93,-5.61 5.95,-5.61 1.61,0 2.86,0.34 3.9,1.02 z"
       id="o" />
    <path
       d="m 158.79,5.43 0.12,0.04 0.03,0.02 0.03,0.01 0.03,0.03 0.06,0.04 0.03,0.03 0.03,0.02 0.1,0.14 0.06,0.08 0.02,0.05 0.02,0.04 0.01,0.04 0.02,0.09 0.01,0.04 0.02,0.04 0.01,0.05 0.01,0.04 0.02,0.04 0.01,0.05 0.05,0.12 0.02,0.05 0.03,0.08 0.01,0.05 0.03,0.12 0.02,0.04 0.02,0.08 0.25,-0.12 0.49,-0.23 0.24,-0.11 0.23,-0.1 0.46,-0.18 0.22,-0.08 0.21,-0.08 0.21,-0.07 0.2,-0.06 0.2,-0.07 0.2,-0.05 0.38,-0.09 0.19,-0.04 0.34,-0.06 0.17,-0.02 0.32,-0.02 h 0.16 l 0.46,0.01 0.44,0.03 0.43,0.04 0.39,0.06 0.38,0.09 0.36,0.1 0.33,0.12 0.31,0.14 0.29,0.15 0.27,0.17 0.25,0.2 0.22,0.2 0.21,0.23 0.18,0.24 0.16,0.26 0.14,0.28 0.12,0.3 0.09,0.31 0.08,0.33 0.06,0.35 0.03,0.36 0.01,0.38 v 4.76 l -0.01,0.19 -0.01,0.18 -0.01,0.17 -0.03,0.18 -0.02,0.17 -0.08,0.32 -0.05,0.16 -0.05,0.15 -0.12,0.3 -0.08,0.14 -0.07,0.14 -0.09,0.14 -0.09,0.13 -0.09,0.12 -0.1,0.13 -0.11,0.12 -0.12,0.12 -0.11,0.12 -0.26,0.22 -0.24,0.18 -0.26,0.16 -0.14,0.07 -0.13,0.07 -0.15,0.07 -0.15,0.06 -0.15,0.05 -0.32,0.11 -0.33,0.08 -0.17,0.04 -0.36,0.06 -0.36,0.04 -0.19,0.02 -0.2,0.01 h -0.19 -0.44 l -0.24,-0.01 -0.24,-0.02 -0.23,-0.01 -0.46,-0.06 -0.22,-0.04 -0.44,-0.09 -0.21,-0.06 -0.21,-0.05 -0.21,-0.07 -0.21,-0.08 -0.4,-0.16 -0.2,-0.1 -0.19,-0.1 -0.2,-0.1 -0.19,-0.11 -0.19,-0.12 -0.36,-0.26 v 5.49 l -0.02,0.2 -0.01,0.09 -0.02,0.09 -0.06,0.24 -0.03,0.07 -0.04,0.07 -0.03,0.05 -0.04,0.06 -0.08,0.1 -0.1,0.08 -0.06,0.02 -0.05,0.03 -0.06,0.02 -0.06,0.01 -0.07,0.01 h -0.14 -0.06 l -0.07,-0.02 -0.05,-0.02 -0.06,-0.02 -0.11,-0.06 -0.04,-0.04 -0.05,-0.04 -0.08,-0.1 -0.04,-0.06 -0.03,-0.06 -0.02,-0.07 -0.03,-0.08 -0.04,-0.16 -0.02,-0.1 -0.01,-0.09 -0.01,-0.11 V 22.87 6.56 6.46 l 0.01,-0.09 0.01,-0.1 0.01,-0.09 0.01,-0.08 0.02,-0.08 0.03,-0.07 0.02,-0.08 0.05,-0.12 0.04,-0.06 0.03,-0.05 0.04,-0.05 0.04,-0.03 0.05,-0.04 0.04,-0.03 0.05,-0.03 0.11,-0.03 0.06,-0.01 h 0.09 l 0.03,0.01 z m 4.49,1.74 -0.46,0.04 -0.22,0.03 -0.21,0.03 -0.21,0.05 -0.38,0.1 -0.36,0.14 -0.15,0.07 -0.16,0.08 -0.15,0.1 -0.17,0.11 -0.16,0.12 -0.17,0.14 -0.17,0.15 -0.18,0.16 -0.18,0.18 -0.2,0.19 -0.2,0.2 v 6.54 h 0.06 v -0.03 l 0.47,0.28 0.45,0.25 0.45,0.24 0.42,0.19 0.41,0.18 0.4,0.14 0.38,0.12 0.36,0.09 0.35,0.07 0.34,0.04 0.32,0.02 0.28,-0.01 0.27,-0.01 0.26,-0.03 0.24,-0.03 0.25,-0.04 0.23,-0.05 0.22,-0.06 0.21,-0.07 0.2,-0.08 0.19,-0.09 0.17,-0.1 0.21,-0.13 0.18,-0.15 0.17,-0.15 0.14,-0.16 0.12,-0.17 0.1,-0.19 0.08,-0.19 0.06,-0.2 0.05,-0.22 0.02,-0.22 0.01,-0.23 V 9.86 L 167.61,9.58 167.58,9.32 167.53,9.09 167.46,8.86 167.37,8.65 167.26,8.45 167.12,8.27 166.97,8.1 166.79,7.95 166.59,7.8 166.37,7.68 166.19,7.59 166,7.5 165.8,7.44 165.59,7.37 165.37,7.32 165.13,7.27 164.89,7.23 164.63,7.2 164.36,7.18 164.08,7.17 163.79,7.16 163.54,7.17 Z"
       id="d" />
  </defs>
  <g
     inkscape:groupmode="layer"
     id="layer1"
     inkscape:label="Logo"
     transform="translate(-160.725,20.345)"
     inkscape:export-filename="FreeCodeCamp.svg"
     inkscape:export-xdpi="96"
     inkscape:export-ydpi="96"
     style="fill:#ffffff">
    <use
       fill="#ffffff"
       xlink:href="#b"
       id="use5"
       style="fill:#ffffff"
       inkscape:label="use1" />
    <use
       fill-opacity="0"
       stroke="#000000"
       stroke-opacity="0"
       xlink:href="#b"
       id="use6"
       style="fill:#ffffff"
       inkscape:label="use2" />
    <use
       fill="#ffffff"
       xlink:href="#e"
       id="use13"
       style="fill:#ffffff"
       inkscape:label="use3" />
    <use
       fill-opacity="0"
       stroke="#000000"
       stroke-opacity="0"
       xlink:href="#e"
       id="use14"
       style="fill:#ffffff"
       inkscape:label="use4" />
    <use
       fill="#ffffff"
       xlink:href="#f"
       id="use21"
       style="fill:#ffffff"
       inkscape:label="use5" />
    <use
       fill-opacity="0"
       stroke="#000000"
       stroke-opacity="0"
       xlink:href="#f"
       id="use22"
       style="fill:#ffffff"
       inkscape:label="use6" />
  </g>
</svg>
