<?xml version="1.0" encoding="UTF-8" standalone="no"?>
<svg
   height="24.309999"
   version="1.1"
   viewBox="0 0 35.552734 24.309999"
   width="35.552734"
   aria-label="currículo de freeCodeCamp"
   data-playwright-test-label="header-logo"
   id="svg30"
   sodipodi:docname="FreeCodeCamp_claro.svg"
   xmlns:inkscape="http://www.inkscape.org/namespaces/inkscape"
   xmlns:sodipodi="http://sodipodi.sourceforge.net/DTD/sodipodi-0.dtd"
   xmlns:xlink="http://www.w3.org/1999/xlink"
   xmlns="http://www.w3.org/2000/svg"
   xmlns:svg="http://www.w3.org/2000/svg">
  <sodipodi:namedview
     id="namedview30"
     pagecolor="#ffffff"
     bordercolor="#999999"
     borderopacity="1"
     inkscape:showpageshadow="2"
     inkscape:pageopacity="0"
     inkscape:pagecheckerboard="0"
     inkscape:deskcolor="#d1d1d1" />
  <defs
     id="defs1">
    <path
       d="m 203.57,0.17 c -0.12,0.12 -0.24,0.29 -0.24,0.45 0,0.29 0.34,0.69 0.97,1.33 2.63,2.53 3.95,5.62 3.94,9.35 -0.01,4.13 -1.4,7.45 -4.1,10.01 -0.57,0.51 -0.8,0.91 -0.8,1.25 0,0.17 0.12,0.34 0.23,0.51 0.11,0.12 0.34,0.23 0.51,0.23 0.62,0 1.5,-0.73 2.64,-2.17 2.22,-2.72 3.22,-5.73 3.28,-9.82 0.05,-4.1 -1.23,-6.88 -3.75,-9.75 C 205.35,0.53 204.59,0 204.08,0 c -0.17,0 -0.35,0.06 -0.51,0.17 z"
       id="b" />
    <path
       d="m 195.66,12.04 c -0.99,-0.25 3.06,-5.03 -4.13,-10.75 0,0 0.94,3 -3.81,9.69 -4.76,6.68 2.11,10.66 2.11,10.66 0,0 -3.22,-1.72 0.53,-7.84 0.67,-1.11 1.55,-2.11 2.64,-4.38 0,0 0.96,1.37 0.46,4.32 -0.75,4.47 3.27,3.19 3.33,3.25 1.41,1.65 -1.16,4.56 -1.32,4.65 -0.16,0.09 7.34,-4.5 2.01,-11.42 -0.36,0.36 -0.83,2.08 -1.82,1.82 z"
       id="e" />
    <path
       d="m 181.88,0.18 c 0.12,0.11 0.23,0.28 0.23,0.45 0,0.29 -0.34,0.68 -0.97,1.32 -2.62,2.53 -3.94,5.62 -3.93,9.36 0.01,4.12 1.4,7.44 4.1,10.01 0.56,0.5 0.8,0.9 0.8,1.24 0,0.17 -0.12,0.35 -0.23,0.51 -0.11,0.12 -0.34,0.24 -0.51,0.24 -0.63,0 -1.5,-0.74 -2.64,-2.18 -2.22,-2.72 -3.22,-5.72 -3.28,-9.82 -0.05,-4.1 1.23,-6.88 3.75,-9.75 0.9,-1.02 1.66,-1.56 2.17,-1.56 0.17,0 0.34,0.06 0.51,0.18 z"
       id="f" />
  </defs>
  <g
     inkscape:groupmode="layer"
     id="layer1"
     inkscape:label="Logo"
     transform="translate(-174.94863,0.5)"
     inkscape:export-filename="FreeCodeCamp.svg"
     inkscape:export-xdpi="96"
     inkscape:export-ydpi="96"
     style="fill:#ffffff">
    <use
       fill="#ffffff"
       xlink:href="#b"
       id="use5"
       style="fill:#ffffff"
       inkscape:label="use1" />
    <use
       fill-opacity="0"
       stroke="#000000"
       stroke-opacity="0"
       xlink:href="#b"
       id="use6"
       style="fill:#ffffff"
       inkscape:label="use2" />
    <use
       fill="#ffffff"
       xlink:href="#e"
       id="use13"
       style="fill:#ffffff"
       inkscape:label="use3" />
    <use
       fill-opacity="0"
       stroke="#000000"
       stroke-opacity="0"
       xlink:href="#e"
       id="use14"
       style="fill:#ffffff"
       inkscape:label="use4" />
    <use
       fill="#ffffff"
       xlink:href="#f"
       id="use21"
       style="fill:#ffffff"
       inkscape:label="use5" />
    <use
       fill-opacity="0"
       stroke="#000000"
       stroke-opacity="0"
       xlink:href="#f"
       id="use22"
       style="fill:#ffffff"
       inkscape:label="use6" />
  </g>
</svg>
